<?xml version="1.0" encoding="UTF-8"?>
<svg width="100px" height="100px" viewBox="0 0 100 100" version="1.1" xmlns="http://www.w3.org/2000/svg" xmlns:xlink="http://www.w3.org/1999/xlink">
    <!-- Generator: sketchtool 52.6 (67491) - http://www.bohemiancoding.com/sketch -->
    <title>icon-logout</title>
    <desc>Created with sketchtool.</desc>
    <g id="Page-1" stroke="none" stroke-width="1" fill="none" fill-rule="evenodd">
        <g id="icon-logout" fill="#000000">
            <g id="Group" transform="translate(14.000000, 12.000000)">
                <path d="M42.9808208,6.04168686 C42.7794394,2.67312975 39.9592275,0 36.5,0 C32.9100054,0 30,2.87736306 30,6.42516292 C30,6.57596812 30.0130767,6.72332633 30.0226663,6.87068455 L30.0226663,41.1293155 C30.0130767,41.2775354 30,41.4248936 30,41.5748371 C30,45.1234987 32.9100054,48 36.5,48 C39.9714324,48 42.7986186,45.3087736 42.9825644,41.9238434 L43,41.9238434 L43,6.04168686 L42.9808208,6.04168686 Z" id="Fill-4"></path>
                <path d="M61.8218345,14.2607904 L61.7113135,14.3703869 C60.6173281,13.5151895 59.2444497,13 57.7480986,13 C54.1924301,13 51.310249,15.8805739 51.310249,19.4342597 C51.310249,21.5787252 52.362789,23.4720683 53.9765687,24.6413845 C57.7955881,28.8362526 60.1312082,34.4023705 60.1312082,40.5207853 C60.1312082,53.5644863 49.5514105,64.1392473 36.5004317,64.1392473 C23.449453,64.1392473 12.8687918,53.5644863 12.8687918,40.5207853 C12.8687918,34.341963 15.2501745,28.7257932 19.1365427,24.5171177 C20.6553433,23.3400348 21.6362174,21.5036474 21.6362174,19.4342597 C21.6362174,15.8805739 18.7540363,13 15.1983677,13 C13.3972204,13 11.7713525,13.7404231 10.6031108,14.9321764 L10.5478503,14.8760838 C4.02883671,21.465677 0,30.5216213 0,40.5207853 C0,60.6675431 16.342433,77 36.5004317,77 C56.6584304,77 73,60.6675431 73,40.5207853 C73,30.2049135 68.7095393,20.8961207 61.8218345,14.2607904" id="Fill-1"></path>
            </g>
        </g>
    </g>
</svg>