<?xml version="1.0" encoding="UTF-8"?>
<svg width="100px" height="100px" viewBox="0 0 100 100" version="1.1" xmlns="http://www.w3.org/2000/svg" xmlns:xlink="http://www.w3.org/1999/xlink">
    <!-- Generator: sketchtool 52.6 (67491) - http://www.bohemiancoding.com/sketch -->
    <title>icon-search</title>
    <desc>Created with sketchtool.</desc>
    <g id="Page-1" stroke="none" stroke-width="1" fill="none" fill-rule="evenodd">
        <g id="icon-search" fill="#000000" fill-rule="nonzero">
            <path d="M67.2142515,59.6600848 L63.2350848,59.6600848 L61.8267515,58.3017515 C73.302922,44.9309559 72.1572094,24.8801379 59.2326816,12.9036089 C46.3081538,0.927079921 26.2282642,1.30916851 13.7687163,13.7687163 C1.30916851,26.2282642 0.927079921,46.3081538 12.9036089,59.2326816 C24.8801379,72.1572094 44.9309559,73.302922 58.3017515,61.8267515 L59.6600848,63.2350848 L59.6600848,67.2142515 L84.8392515,92.3434181 L92.3392515,84.8434181 L67.2142515,59.6600848 Z M36.9975848,59.6600848 C24.4868631,59.6485786 14.3520934,49.5013732 14.3559288,36.9906468 C14.3597642,24.4799203 24.5007536,14.3389309 37.0114801,14.3350955 C49.5222065,14.3312601 59.6694119,24.4660297 59.6809181,36.9767515 C59.694232,42.9968172 57.3086633,48.7741506 53.0518236,53.0309903 C48.794984,57.28783 43.0176505,59.6733987 36.9975848,59.6600848 Z" id="Path_15"></path>
        </g>
    </g>
</svg>